EMG
version=1
nRows=20
nColumns=17
inDegrees=no
endheader
time	_right_gast_med	_right_glut_max	_left_gast_med	_left_glut_max	_right_glut_med	_right_bic_fem	_right_rect_fem	_right_vast_lat	_right_vast_med	_right_tens_fasc_lat	_left_glut_med	_left_bic_fem	_left_rect_fem	_left_vast_lat	_left_vast_med	_left_tens_fasc_lat
      0.00000000	      0.19948056	     -0.02739464	     -0.01646662	     -0.01250027	      0.00034066	      0.01011396	      0.00297099	     -0.00398543	      0.00476494	      0.01728063	      0.00784450	     -0.00033853	      0.00943438	      0.01456585	      0.02241625	      0.02147709
      0.01000000	      0.15685968	     -0.00107995	      0.04432515	      0.03996189	      0.01945888	      0.01613359	      0.00030722	      0.00527412	      0.00475586	      0.02081493	      0.01238090	      0.00100763	      0.01392553	      0.02823814	     -0.03347784	      0.01249042
      0.02000000	      0.11392199	      0.00887050	      0.07547268	      0.23933797	      0.02532217	      0.00841888	      0.00354917	      0.00970401	      0.00918576	      0.01450360	      0.01279235	      0.00904517	      0.01627469	     -0.00043625	     -0.08132794	      0.00957861
      0.03000000	      0.07752401	      0.01450641	      0.00885213	     -0.12862562	      0.02565702	      0.01951558	      0.00783165	      0.01353687	      0.00938657	      0.01024269	      0.01268174	      0.02190338	      0.01592078	     -0.05388079	     -0.02890257	      0.01059450
      0.04000000	      0.05104551	      0.01429255	     -0.00756194	     -1.87100911	      0.02364947	      0.03381776	      0.00986355	      0.00599223	      0.00765754	      0.01713695	      0.01179277	      0.02676342	      0.01315325	     -0.03576995	      0.06540941	      0.01032695
      0.05000000	      0.03318919	      0.00472685	      0.00114724	     -2.21043921	      0.02037917	      0.02602118	      0.00917172	      0.01474823	      0.00689554	      0.02459550	      0.00572934	      0.02766655	      0.01162523	      0.02158646	      0.09480770	      0.00815894
      0.06000000	      0.02470964	     -0.00481298	     -0.02018665	     -0.57695812	      0.01463766	      0.02302511	      0.00825447	      0.03589432	     -0.00131827	      0.02071779	      0.00132300	      0.04182437	      0.01954348	      0.05062977	      0.06585350	      0.00439627
      0.07000000	      0.02261222	     -0.00801396	      0.01629564	      0.78090519	      0.00732863	      0.01931835	      0.01527544	      0.03117947	     -0.02836886	      0.00789251	      0.00174664	      0.04331572	      0.01848112	      0.04457504	      0.02366018	      0.00483568
      0.08000000	      0.01490635	     -0.00364003	      0.03651472	      1.14799047	      0.00210894	      0.01710971	      0.01880379	      0.01880522	     -0.03657095	      0.00297286	      0.00569128	      0.03422380	      0.00549098	      0.02076186	     -0.00288474	      0.01168734
      0.09000000	      0.01159086	      0.00406410	      0.00354073	      1.07006764	     -0.00121410	      0.01367372	      0.01368350	      0.00571215	     -0.03784646	      0.00794166	      0.00840127	      0.02753431	     -0.00107032	      0.00632606	     -0.01099483	      0.03352875
      0.10000000	      0.00982323	      0.01571680	     -0.04367908	      0.89854956	      0.00137742	      0.00756310	      0.00228395	     -0.00961022	     -0.05677313	      0.01469344	      0.01123913	      0.00692156	      0.00093286	      0.00211910	     -0.00989384	      0.04562438
      0.11000000	     -0.00170807	      0.03180257	     -0.03232706	      0.70878977	      0.00351955	      0.00588854	      0.00472618	      0.01444916	     -0.15165630	      0.02107257	      0.01647869	     -0.01585357	      0.00293724	      0.00314365	     -0.01200007	      0.03167307
      0.12000000	     -0.01007833	      0.04117838	      0.02428607	      0.51554805	     -0.00029021	      0.00603687	      0.04960652	      0.02749851	     -0.33637792	      0.01951567	      0.01858596	     -0.01409631	      0.00645835	      0.00467237	     -0.02137271	      0.01334062
      0.13000000	     -0.00645918	      0.01354415	      0.02152211	      0.35951158	     -0.00253336	     -0.00496210	      0.07374852	      0.00470176	     -0.33745205	      0.01877204	      0.01676412	     -0.00543471	      0.01092928	      0.00688237	     -0.03162808	      0.01238636
      0.14000000	     -0.00908317	     -0.02759674	      0.01854903	      0.25368279	     -0.00203111	      0.00764398	      0.01817694	      0.01254073	      0.02076777	      0.02143953	      0.01596436	     -0.00604238	      0.01233571	      0.01621915	     -0.02313575	      0.01801905
      0.15000000	     -0.00684460	     -0.04887068	      0.02344080	      0.17637035	     -0.00401613	      0.02437144	     -0.04804210	      0.04445873	      0.36700675	      0.01742592	      0.00869502	     -0.01355508	      0.01402086	      0.03327297	      0.00885641	      0.00638685
      0.16000000	     -0.00924813	     -0.04810024	      0.02749553	      0.12229745	     -0.01062820	      0.02028786	     -0.06681269	      0.01916695	      0.41980308	      0.00376198	      0.00166269	     -0.01204923	      0.00687450	      0.03448016	      0.02901866	     -0.00942393
      0.17000000	     -0.01877012	     -0.02375029	      0.01889971	      0.06746983	      0.00050338	     -0.00075496	     -0.05221263	     -0.01307741	      0.26012817	     -0.00531736	      0.00819602	     -0.00781058	      0.00379861	      0.02360649	      0.02217982	     -0.01264103
      0.18000000	     -0.01131715	      0.02996046	      0.00916883	     -0.02125166	      0.01840736	     -0.03623741	     -0.02481023	     -0.03834017	      0.06659212	     -0.00491310	      0.01513532	     -0.00624778	      0.00860203	      0.01101864	      0.00528730	     -0.01906860
      0.19000000	     -0.01378069	      0.04525718	      0.00667983	     -0.12449058	      0.01494254	     -0.00967220	     -0.00640159	     -0.02615854	      0.02531248	     -0.01020636	      0.01345430	     -0.00149200	      0.00715205	     -0.00138463	      0.00405805	     -0.02912538
